<svg width="184" height="44" viewBox="0 0 184 44" fill="none" xmlns="http://www.w3.org/2000/svg">
<path d="M2 12.5H35V35.5C35 37.7091 33.2091 39.5 31 39.5H6C3.79086 39.5 2 37.7091 2 35.5V12.5Z" fill="white"/>
<rect x="12" y="18.5" width="23" height="8" fill="#5424DB"/>
<rect x="10" y="39.5" width="21" height="7" transform="rotate(-90 10 39.5)" fill="#5424DB"/>
<path d="M17 32.5H35V39.5H17V32.5Z" fill="#C583FF"/>
<path d="M8 16.5C8 0.210409 29 0.792209 29 16.5" stroke="white" stroke-width="5"/>
<path d="M46 31.1491V14.6055H49.6163V31.1491H46ZM47.7328 24.9578V22H57.4014V24.9578H47.7328ZM47.7328 17.6887V14.6055H58.3306V17.6887H47.7328Z" fill="white"/>
<path d="M62.9903 31.5C62.2537 31.5 61.6007 31.358 61.0315 31.0739C60.4622 30.7731 60.0186 30.347 59.7005 29.7955C59.3824 29.2441 59.2233 28.5589 59.2233 27.7401C59.2233 27.0215 59.3573 26.42 59.6251 25.9354C59.9097 25.4507 60.3199 25.058 60.8557 24.7573C61.3914 24.4565 62.0527 24.2058 62.8396 24.0053C63.6265 23.8047 64.5222 23.6293 65.5267 23.4789C66.0625 23.3953 66.4978 23.3201 66.8326 23.2533C67.1842 23.1697 67.4437 23.0444 67.6112 22.8773C67.7786 22.6935 67.8623 22.4345 67.8623 22.1003C67.8623 21.6324 67.6949 21.2313 67.36 20.8971C67.0252 20.5629 66.4978 20.3958 65.7779 20.3958C65.2924 20.3958 64.8403 20.4793 64.4218 20.6464C64.02 20.8135 63.6684 21.0642 63.367 21.3984C63.0824 21.7326 62.8731 22.1588 62.7392 22.6768L59.5498 21.6992C59.7507 21.0141 60.0353 20.4208 60.4036 19.9195C60.7887 19.4182 61.2491 19.0004 61.7849 18.6662C62.3206 18.3153 62.9317 18.0563 63.6181 17.8892C64.3046 17.7221 65.0496 17.6385 65.8532 17.6385C67.1424 17.6385 68.1888 17.8474 68.9924 18.2652C69.8127 18.6662 70.4238 19.3012 70.8257 20.1702C71.2275 21.0224 71.4284 22.1253 71.4284 23.4789V25.7348C71.4284 26.3197 71.4367 26.9129 71.4535 27.5145C71.487 28.1161 71.5205 28.726 71.5539 29.3443C71.6042 29.9459 71.6544 30.5475 71.7046 31.1491H68.5152C68.4483 30.7313 68.3813 30.2551 68.3143 29.7203C68.2641 29.1689 68.2222 28.6174 68.1888 28.066H67.7367C67.5023 28.701 67.1675 29.2775 66.7322 29.7955C66.2969 30.3135 65.7611 30.7313 65.1249 31.0488C64.5055 31.3496 63.7939 31.5 62.9903 31.5ZM64.5222 28.8931C64.8403 28.8931 65.1584 28.8347 65.4765 28.7177C65.8114 28.6007 66.1295 28.442 66.4308 28.2414C66.7489 28.0242 67.0335 27.7568 67.2847 27.4393C67.5526 27.1218 67.7702 26.7625 67.9376 26.3615L67.8874 24.2559L68.465 24.3813C68.1636 24.5985 67.8121 24.774 67.4102 24.9076C67.0084 25.0246 66.5899 25.1165 66.1546 25.1834C65.736 25.2502 65.3175 25.3254 64.8989 25.409C64.4804 25.4925 64.1037 25.6011 63.7688 25.7348C63.4507 25.8685 63.1912 26.0523 62.9903 26.2863C62.8061 26.5035 62.7141 26.8127 62.7141 27.2137C62.7141 27.7317 62.8815 28.1412 63.2163 28.442C63.5512 28.7427 63.9865 28.8931 64.5222 28.8931Z" fill="white"/>
<path d="M74.5917 31.1491V17.9894H78.208V31.1491H74.5917ZM76.4249 16.0092C75.7218 16.0092 75.1776 15.8672 74.7926 15.5831C74.4242 15.2823 74.2401 14.8478 74.2401 14.2797C74.2401 13.6948 74.4242 13.252 74.7926 12.9512C75.1776 12.6504 75.7218 12.5 76.4249 12.5C77.1448 12.5 77.689 12.6504 78.0573 12.9512C78.4424 13.252 78.6349 13.6948 78.6349 14.2797C78.6349 14.8311 78.4424 15.2573 78.0573 15.558C77.689 15.8588 77.1448 16.0092 76.4249 16.0092Z" fill="white"/>
<path d="M81.5567 31.1491V17.9894H84.5452L84.5703 22.4763H85.0474C85.1814 21.3566 85.4074 20.4459 85.7255 19.7441C86.0603 19.0422 86.5207 18.5242 87.1067 18.19C87.6927 17.8558 88.421 17.6887 89.2916 17.6887C89.4422 17.6887 89.6013 17.697 89.7687 17.7137C89.9529 17.7137 90.1622 17.7388 90.3965 17.7889L90.2459 21.624C89.9947 21.507 89.7185 21.4235 89.4171 21.3734C89.1158 21.3232 88.8479 21.2982 88.6135 21.2982C87.9606 21.2982 87.3997 21.4485 86.9309 21.7493C86.4621 22.0501 86.0771 22.4846 85.7757 23.0528C85.4911 23.6042 85.2985 24.281 85.1981 25.0831V31.1491H81.5567Z" fill="white"/>
<path d="M98.4092 31.1491V14.6055H103.859L108.48 27.0633H108.605L113.126 14.6055H118.324V31.1491H114.884L115.11 18.2652H114.833L109.811 31.1491H106.797L101.85 18.2652H101.574L101.8 31.1491H98.4092Z" fill="white"/>
<path d="M124.866 31.5C124.129 31.5 123.476 31.358 122.907 31.0739C122.338 30.7731 121.894 30.347 121.576 29.7955C121.258 29.2441 121.099 28.5589 121.099 27.7401C121.099 27.0215 121.233 26.42 121.501 25.9354C121.786 25.4507 122.196 25.058 122.731 24.7573C123.267 24.4565 123.929 24.2058 124.715 24.0053C125.502 23.8047 126.398 23.6293 127.403 23.4789C127.938 23.3953 128.374 23.3201 128.708 23.2533C129.06 23.1697 129.32 23.0444 129.487 22.8773C129.654 22.6935 129.738 22.4345 129.738 22.1003C129.738 21.6324 129.571 21.2313 129.236 20.8971C128.901 20.5629 128.374 20.3958 127.654 20.3958C127.168 20.3958 126.716 20.4793 126.298 20.6464C125.896 20.8135 125.544 21.0642 125.243 21.3984C124.958 21.7326 124.749 22.1588 124.615 22.6768L121.426 21.6992C121.626 21.0141 121.911 20.4208 122.279 19.9195C122.664 19.4182 123.125 19.0004 123.661 18.6662C124.196 18.3153 124.807 18.0563 125.494 17.8892C126.18 17.7221 126.925 17.6385 127.729 17.6385C129.018 17.6385 130.065 17.8474 130.868 18.2652C131.689 18.6662 132.3 19.3012 132.701 20.1702C133.103 21.0224 133.304 22.1253 133.304 23.4789V25.7348C133.304 26.3197 133.313 26.9129 133.329 27.5145C133.363 28.1161 133.396 28.726 133.43 29.3443C133.48 29.9459 133.53 30.5475 133.58 31.1491H130.391C130.324 30.7313 130.257 30.2551 130.19 29.7203C130.14 29.1689 130.098 28.6174 130.065 28.066H129.612C129.378 28.701 129.043 29.2775 128.608 29.7955C128.173 30.3135 127.637 30.7313 127.001 31.0488C126.381 31.3496 125.67 31.5 124.866 31.5ZM126.398 28.8931C126.716 28.8931 127.034 28.8347 127.352 28.7177C127.687 28.6007 128.005 28.442 128.307 28.2414C128.625 28.0242 128.909 27.7568 129.16 27.4393C129.428 27.1218 129.646 26.7625 129.813 26.3615L129.763 24.2559L130.341 24.3813C130.039 24.5985 129.688 24.774 129.286 24.9076C128.884 25.0246 128.466 25.1165 128.03 25.1834C127.612 25.2502 127.193 25.3254 126.775 25.409C126.356 25.4925 125.979 25.6011 125.645 25.7348C125.326 25.8685 125.067 26.0523 124.866 26.2863C124.682 26.5035 124.59 26.8127 124.59 27.2137C124.59 27.7317 124.757 28.1412 125.092 28.442C125.427 28.7427 125.862 28.8931 126.398 28.8931Z" fill="white"/>
<path d="M136.467 31.1491V17.9894H139.456L139.481 22.4763H139.958C140.092 21.3566 140.318 20.4459 140.636 19.7441C140.971 19.0422 141.431 18.5242 142.017 18.19C142.603 17.8558 143.332 17.6887 144.202 17.6887C144.353 17.6887 144.512 17.697 144.679 17.7137C144.864 17.7137 145.073 17.7388 145.307 17.7889L145.157 21.624C144.905 21.507 144.629 21.4235 144.328 21.3734C144.027 21.3232 143.759 21.2982 143.524 21.2982C142.871 21.2982 142.31 21.4485 141.842 21.7493C141.373 22.0501 140.988 22.4846 140.686 23.0528C140.402 23.6042 140.209 24.281 140.109 25.0831V31.1491H136.467Z" fill="white"/>
<path d="M147.356 31.1491V13.2269H150.922V23.1781C151.441 22.8272 151.935 22.4512 152.404 22.0501C152.89 21.6324 153.325 21.1979 153.71 20.7467C154.112 20.2955 154.463 19.836 154.765 19.3681C155.083 18.9002 155.351 18.4406 155.568 17.9894H159.712C159.461 18.6244 159.126 19.2678 158.708 19.9195C158.306 20.5545 157.82 21.1478 157.251 21.6992C156.699 22.2339 156.054 22.6935 155.317 23.0778C154.581 23.4622 153.769 23.7212 152.881 23.8549V24.281C154.003 24.0805 154.932 24.0972 155.669 24.3311C156.406 24.5651 157.008 24.9411 157.477 25.4591C157.963 25.9604 158.348 26.5453 158.632 27.2137C158.917 27.8654 159.176 28.5255 159.411 29.1939L159.988 31.1491H156.046L155.719 29.9208C155.485 29.102 155.225 28.3835 154.941 27.7652C154.656 27.1469 154.279 26.6706 153.811 26.3364C153.358 25.9855 152.731 25.81 151.927 25.81H150.922V31.1491H147.356Z" fill="white"/>
<path d="M168.052 31.5C166.963 31.5 165.992 31.3496 165.139 31.0488C164.301 30.748 163.59 30.3135 163.004 29.7454C162.418 29.1772 161.966 28.4754 161.648 27.6398C161.346 26.8043 161.196 25.8602 161.196 24.8074C161.196 23.7713 161.338 22.8188 161.623 21.9499C161.924 21.0642 162.359 20.3039 162.929 19.6689C163.498 19.0171 164.193 18.5158 165.013 18.1649C165.833 17.814 166.763 17.6385 167.801 17.6385C168.805 17.6385 169.701 17.8056 170.488 18.1398C171.275 18.4573 171.928 18.942 172.447 19.5937C172.982 20.2454 173.367 21.0475 173.602 22C173.853 22.9358 173.945 24.0136 173.878 25.2335L163.531 25.3338V23.3536L171.794 23.2784L170.513 24.281C170.63 23.3953 170.571 22.6684 170.337 22.1003C170.103 21.5321 169.759 21.1143 169.307 20.847C168.872 20.5796 168.387 20.4459 167.851 20.4459C167.215 20.4459 166.654 20.613 166.168 20.9472C165.683 21.2814 165.306 21.7744 165.038 22.4261C164.77 23.0611 164.636 23.8298 164.636 24.7322C164.636 26.1526 164.946 27.197 165.565 27.8654C166.202 28.5339 167.03 28.8681 168.052 28.8681C168.52 28.8681 168.914 28.8096 169.232 28.6926C169.567 28.5589 169.835 28.3918 170.036 28.1913C170.253 27.9908 170.421 27.7652 170.538 27.5145C170.672 27.2639 170.781 27.0132 170.864 26.7625L174.004 27.4393C173.853 28.0576 173.627 28.6174 173.325 29.1187C173.041 29.6033 172.656 30.0295 172.17 30.3971C171.685 30.748 171.099 31.0154 170.412 31.1992C169.743 31.3997 168.956 31.5 168.052 31.5Z" fill="white"/>
<path d="M181.413 31.4499C179.94 31.4499 178.852 31.0655 178.149 30.2968C177.462 29.5114 177.119 28.2665 177.119 26.562V20.8219H175.21L175.261 17.9894H176.592C177.111 17.9894 177.496 17.9142 177.747 17.7639C177.998 17.6135 178.149 17.3377 178.199 16.9367L178.525 15.0567H180.585V17.9894H183.925V20.9222H180.585V26.4116C180.585 27.0132 180.727 27.4477 181.012 27.715C181.296 27.9824 181.731 28.1161 182.317 28.1161C182.636 28.1161 182.937 28.0827 183.221 28.0158C183.523 27.949 183.782 27.8404 184 27.69V31.0488C183.481 31.2159 183.004 31.3245 182.569 31.3747C182.133 31.4248 181.748 31.4499 181.413 31.4499Z" fill="white"/>
</svg>
